<svg width="1920" height="1080" viewBox="0 0 1920 1080" fill="none" xmlns="http://www.w3.org/2000/svg">
  <g opacity="1">
    <rect width="1920" height="1080" fill="none"/>
    <path d="M2573.63 -10.3613L1600.97 -10.0715L1512.48 264.793H2192.67L1320.85 857.991C1256.2 901.894 1236.95 992.019 1282.92 1055.48C1328.89 1118.95 1408.91 1129.67 1469.24 1088.52L2353.13 487.206L2159.06 1089.53H2469.49L2746.45 229.584C2784.66 111.205 2697.03 -10.3613 2573.63 -10.3613Z" fill="#00C7B1"/>
    <path d="M186.282 -10.3613L-167.964 1089.53H142.468L408.08 264.793H1042.3L610.342 558.639C549.146 600.224 527.455 683.973 566.528 747.292C608.187 814.958 695.671 832.345 758.878 789.312L1296.85 423.308C1489.06 292.613 1397.27 -10.0715 1165.41 -10.0715L186.425 -10.3613H186.282Z" fill="#00C7B1"/>
  </g>
</svg>
